<svg version="1.2" xmlns="http://www.w3.org/2000/svg" viewBox="0 0 1519 599" width="1519" height="599">
	<title>btgactual-svg</title>
	<style>
		.s0 { fill: #001e62 } 
	</style>
	<path id="Layer" fill-rule="evenodd" class="s0" d="m1477 306.4v49.8c0 29.8-18.2 44.9-54.2 44.9h-9.1c-34 0-51.2-15.1-51.2-44.9v-2.3c0-31.8 17.5-47.2 53.5-47.2 22.5 0 38.5 4.6 47.5 13.8v-14.1c0-29.1-12.3-38.9-48.7-38.9h-39.7l3-13.3h36.7c44.2 0 62.2 15.1 62.2 52.2zm-13.5 46.3c0-23.2-13.9-33.1-46.4-33.1h-2.3c-27.1 0-38.7 10.3-38.7 34.3v2.3c0 22.1 12.1 31.6 40.6 31.6h5.7c29.6 0 41.1-8.3 41.1-29.7zm-802.6-35.7v82.1c0 54.4-28.6 75.7-84.2 75.7h-42.2c-55.1 77.2-143.5 123.8-239.2 123.8-162.8 0-295.3-134.3-295.3-299.3 0-165 132.5-299.3 295.3-299.3 116.2 0 221.8 69.3 269.4 176.7h-13c-46.7-100.3-146.6-164.7-256.4-164.7-156.3 0-283.5 128.9-283.5 287.3 0 158.4 127.2 287.3 283.5 287.3 98 0 187.8-50.7 239.6-133.8h0.1c6.2-10.3 10.9-12.2 21.2-12.4h18c30.2 0 43.1-9.8 43.1-39.7v-6.4c-12.3 9.9-29.6 13-46.8 13-54 0-77-25.7-77-78.9v-8.6c0-56 26.4-80.5 83.9-80.5 56.2 0 83.5 23.5 83.5 77.7zm-488.9-137.9l43.9-7v80.6c12.6-9.9 31.1-13.4 48.1-13.4 53.4 0 77.9 26.7 77.9 81.5v14.9c0 58.3-26.4 81.8-86.1 81.8-57.5 0-83.8-24.2-83.8-82.1zm85.4 95.2c-31.4 0-42.1 10.8-42.1 43v18.1c0 35.3 10.7 47.4 41.5 47.4 30.7 0 41.4-12.1 41.4-47.1v-13.4c0-35.9-10.7-48-40.8-48zm159.5 6v65c0 26.7 7.9 32.7 32 32.7h27.4l-7.3 35.4h-23.2c-53.1 0-72.5-15-72.5-65.3v-145.4l43.6-6.7v48.7h62.2l-7.2 35.6zm200.6 41.1c0-35-6.6-47.1-40.2-47.1-34.2 0-40.2 12.4-40.2 46.8v5.4c0 34.7 6.6 46.5 40.2 46.5 29.9 0 40.2-9.3 40.2-39.2zm887.5-122.4h13.5v202.1h-13.5zm-305.3 68.6h-57.5v82.5c0 28 8.9 36.9 36.8 36.9h22.5l-2.5 13.4h-20c-37 0-50.8-13.9-50.8-51.1v-130.7l14-2.5v38.1h60.6l-3.1 13.4zm125.5-13.4h13.5v88.9c0 41.8-16.6 58.8-57.2 58.8-41 0-56.9-16.5-56.9-58.8v-88.9h13.9v88.9c0 34 10.9 45.5 43 45.5 33 0 43.7-11.1 43.7-45.5zm-306.5 79.3c0 38.5 14.3 53.5 51 53.5h35.2l-3.1 13.4h-32.1c-44.9 0-64.9-20.6-64.9-66.9v-12.4c0-46.2 20-66.9 64.9-66.9h34.8l-3.1 13.4h-31.7c-37.6 0-51 14-51 53.5v12.4zm-38.4-27v49.8c0 29.8-18.2 44.9-53.9 44.9h-9.1c-34.2 0-51.5-15.1-51.5-44.9v-2.3c0-31.8 17.4-47.3 53.4-47.3 22.5 0 38.5 4.7 47.5 13.8v-14c0-29.1-12.2-38.9-48.3-38.9h-39.7l3-13.4h36.7c43.9 0 61.9 15.2 61.9 52.3zm-13.6 46.3c0-23.2-13.9-33.1-46.4-33.1h-2.2c-27.2 0-38.8 10.2-38.8 34.3v2.3c0 22.1 12.3 31.5 41 31.5h5.8c29.6 0 40.6-8 40.6-29.6zm-184.6-100.9c43.2 0 62.5 20.8 62.5 67.3v14.3c0 46.8-19 67.7-61.8 67.7-22.1 0-40.3-7.6-50.2-20.5v64.5h-13.5v-125.6c0-46.2 20-67.7 63-67.7zm48.6 67.3c0-38.8-13.6-53.9-48.6-53.9-34.9 0-49.1 15.7-49.1 54.3v19.7c0 32.2 16.8 48.5 49.8 48.5 34.9 0 47.9-14.7 47.9-54.3z"/>
</svg>